<mxfile host="65bd71144e">
    <diagram name="Page-1" id="g1_yAomx_UEzNeh92aMA">
        <mxGraphModel dx="1513" dy="520" grid="0" gridSize="10" guides="1" tooltips="1" connect="1" arrows="1" fold="1" page="0" pageScale="1" pageWidth="850" pageHeight="1100" background="none" math="0" shadow="0">
            <root>
                <mxCell id="0"/>
                <mxCell id="1" parent="0"/>
                <mxCell id="-Ydazxiy9TI8VDEuez6z-4" value="on:push" style="ellipse;whiteSpace=wrap;html=1;" parent="1" vertex="1">
                    <mxGeometry x="-207" y="133" width="80" height="80" as="geometry"/>
                </mxCell>
                <mxCell id="-Ydazxiy9TI8VDEuez6z-41" style="edgeStyle=orthogonalEdgeStyle;rounded=0;orthogonalLoop=1;jettySize=auto;html=1;entryX=0;entryY=0.5;entryDx=0;entryDy=0;" parent="1" source="-Ydazxiy9TI8VDEuez6z-51" target="-Ydazxiy9TI8VDEuez6z-8" edge="1">
                    <mxGeometry relative="1" as="geometry"/>
                </mxCell>
                <mxCell id="-Ydazxiy9TI8VDEuez6z-8" value="Oracle&lt;br&gt;(Issue)" style="whiteSpace=wrap;html=1;" parent="1" vertex="1">
                    <mxGeometry x="221" y="147.5" width="77" height="51" as="geometry"/>
                </mxCell>
                <mxCell id="-Ydazxiy9TI8VDEuez6z-52" style="edgeStyle=orthogonalEdgeStyle;rounded=0;orthogonalLoop=1;jettySize=auto;html=1;" parent="1" source="-Ydazxiy9TI8VDEuez6z-4" target="-Ydazxiy9TI8VDEuez6z-51" edge="1">
                    <mxGeometry relative="1" as="geometry">
                        <mxPoint x="-144" y="173" as="sourcePoint"/>
                    </mxGeometry>
                </mxCell>
                <mxCell id="-Ydazxiy9TI8VDEuez6z-51" value="Sanctuary" style="whiteSpace=wrap;html=1;verticalAlign=top;" parent="1" vertex="1">
                    <mxGeometry x="-65" y="91" width="227" height="164" as="geometry"/>
                </mxCell>
                <mxCell id="-Ydazxiy9TI8VDEuez6z-56" value="Performance" style="rounded=1;whiteSpace=wrap;html=1;" parent="1" vertex="1">
                    <mxGeometry x="-38" y="124" width="88" height="27" as="geometry"/>
                </mxCell>
                <mxCell id="-Ydazxiy9TI8VDEuez6z-57" value="Maintenance" style="rounded=1;whiteSpace=wrap;html=1;" parent="1" vertex="1">
                    <mxGeometry x="-39" y="167" width="90" height="29" as="geometry"/>
                </mxCell>
                <mxCell id="-Ydazxiy9TI8VDEuez6z-58" value="Security" style="rounded=1;whiteSpace=wrap;html=1;" parent="1" vertex="1">
                    <mxGeometry x="63" y="168" width="68" height="27" as="geometry"/>
                </mxCell>
                <mxCell id="-Ydazxiy9TI8VDEuez6z-59" style="edgeStyle=orthogonalEdgeStyle;rounded=0;orthogonalLoop=1;jettySize=auto;html=1;" parent="1" source="-Ydazxiy9TI8VDEuez6z-60" edge="1">
                    <mxGeometry relative="1" as="geometry">
                        <mxPoint x="48.5" y="253.00476190476195" as="targetPoint"/>
                    </mxGeometry>
                </mxCell>
                <mxCell id="-Ydazxiy9TI8VDEuez6z-60" value="Gen&lt;br&gt;Oracle" style="rhombus;whiteSpace=wrap;html=1;" parent="1" vertex="1">
                    <mxGeometry x="8.5" y="279.6" width="80" height="53" as="geometry"/>
                </mxCell>
                <mxCell id="-Ydazxiy9TI8VDEuez6z-61" value="Reliability" style="rounded=1;whiteSpace=wrap;html=1;" parent="1" vertex="1">
                    <mxGeometry x="62" y="124.5" width="69" height="26" as="geometry"/>
                </mxCell>
                <mxCell id="B493zzREHIWFwk5Nx8WS-1" value="Documentation" style="rounded=1;whiteSpace=wrap;html=1;" parent="1" vertex="1">
                    <mxGeometry x="1" y="209" width="102" height="30" as="geometry"/>
                </mxCell>
            </root>
        </mxGraphModel>
    </diagram>
</mxfile>